<svg id="f7da480a-aa22-42a1-820e-f8c464b34b3a" data-name="Calque 1" xmlns="http://www.w3.org/2000/svg" width="37.81mm" height="26.48mm" viewBox="0 0 107.18 75.06"><path d="M84.59,43.19a32.15,32.15,0,0,1-5.59,18,31.66,31.66,0,0,1-33.75,13A32,32,0,0,1,21.13,46.73c-.09-.81-.17-1.62-.19-2.43s0-1.63,0-2.45A22.75,22.75,0,0,1,21.75,37a32.58,32.58,0,0,1,4.09-8.83A80.25,80.25,0,0,1,38.53,13.73c2.33-2.18,4.68-4.31,7-6.43S50.24,3.05,52.34.76L53,0l.74.71c3.21,3.07,6.56,6,9.89,9.05Q66.18,12,68.58,14.4c1.6,1.58,3.18,3.19,4.68,4.88a67.39,67.39,0,0,1,4.28,5.24,43.12,43.12,0,0,1,3.61,5.73A26.86,26.86,0,0,1,84.59,43.19Zm-.2,0a26.59,26.59,0,0,0-3.69-12.7A41.16,41.16,0,0,0,76.89,25a61.64,61.64,0,0,0-4.45-5c-3.12-3.19-6.51-6.09-9.89-9S55.68,5.27,52.39,2.16l1.44-.05c-4.39,4.77-9.29,8.8-13.92,13.1s-9.14,8.73-12.59,13.92a30.81,30.81,0,0,0-4,8.31,21,21,0,0,0-.81,4.5,19.74,19.74,0,0,0,0,2.31,22.39,22.39,0,0,0,.15,2.31,30.6,30.6,0,0,0,7.26,16.83,31,31,0,0,0,54.5-20.2Z" style="fill:#07414f"/><path d="M99.85,66.56a25.16,25.16,0,0,1-6.76,4.81,25.94,25.94,0,0,1-8,2.4A25.27,25.27,0,0,1,69,70.49l-.58-.34.58-.37a32,32,0,0,0,9.16-8.65,30.52,30.52,0,0,0,5-11.51A28.6,28.6,0,0,0,77.68,25.9l-.87-1.16,1.45-.22A72.09,72.09,0,0,1,92,24l6.8.34c2.25.11,4.49.21,6.69.11l1,0,0,1c.09,3.51.3,7.06.46,10.62a98.3,98.3,0,0,1,0,10.72,43.36,43.36,0,0,1-1.82,10.59A21.34,21.34,0,0,1,99.85,66.56Zm-.15-.14a20.79,20.79,0,0,0,5-9.2,41.87,41.87,0,0,0,1.15-10.47c0-3.52-.29-7-.55-10.58s-.66-7.07-.74-10.67l1.07,1A134.7,134.7,0,0,1,91.92,26a72.27,72.27,0,0,0-13.41.23l.57-1.38A31.66,31.66,0,0,1,84.54,36.8a31.05,31.05,0,0,1-.11,13.09,31.84,31.84,0,0,1-15,20.6v-.71A24.52,24.52,0,0,0,85.1,73.42,23.56,23.56,0,0,0,93,71.19,24.89,24.89,0,0,0,99.7,66.42Z" style="fill:#07414f"/><path d="M37,70.11c-.68.38-1.42.85-2.14,1.17s-1.43.66-2.19.88a21.62,21.62,0,0,1-2.25.68c-.38.09-.76.2-1.15.27l-1.16.2a24.59,24.59,0,0,1-9.4-.34,25.44,25.44,0,0,1-8.66-3.77,20.36,20.36,0,0,1-6.5-6.9,28.23,28.23,0,0,1-2.92-9A62.19,62.19,0,0,1,0,43.82c0-3.14.14-6.28.27-9.4s.29-6.23.13-9.28l0-.79.8,0c4.65-.16,9.33-.67,14.05-.91a66.38,66.38,0,0,1,14.28.45l1.69.27L30.12,25.5a55.26,55.26,0,0,0-3.66,5.28,30.67,30.67,0,0,0-2.67,5.76,22,22,0,0,0-1.19,6.15,31.64,31.64,0,0,0,.47,6.36,34.79,34.79,0,0,0,1.76,6.15,30.57,30.57,0,0,0,3,5.69,31.62,31.62,0,0,0,4.1,5A41,41,0,0,0,37,70.11Zm-.2,0a26.44,26.44,0,0,1-5.37-3.71,28,28,0,0,1-4.52-4.89,30.88,30.88,0,0,1-5.48-12.15,32.78,32.78,0,0,1-.67-6.71,23,23,0,0,1,1.1-6.74,37.6,37.6,0,0,1,6.63-11.68l.63,1.65a68.6,68.6,0,0,0-13.85-.66c-4.67.16-9.35.56-14.1.65L2,25.06c.12,3.19-.09,6.32-.27,9.44s-.37,6.22-.41,9.33a60.68,60.68,0,0,0,.49,9.25,27.34,27.34,0,0,0,2.66,8.75,19.68,19.68,0,0,0,6.1,6.74,24.69,24.69,0,0,0,8.35,3.83,24,24,0,0,0,9.2.52l1.15-.17c.38-.07.76-.17,1.14-.25a17.72,17.72,0,0,0,2.24-.62c.75-.2,1.45-.56,2.17-.83Z" style="fill:#07414f"/><path d="M42,47.91a1.22,1.22,0,0,1-.79-.19A.93.93,0,0,1,41,47V40.53l.38-.06a4.07,4.07,0,0,1,.5,0,1.26,1.26,0,0,1,.77.18.83.83,0,0,1,.24.7v6.5l-.38.06A4,4,0,0,1,42,47.91Z" style="fill:#b1378c"/><path d="M47.9,43.52a1,1,0,0,0-.67-.2,1.74,1.74,0,0,0-.53.07,3,3,0,0,0-.45.18v4.25l-.33.06a3.64,3.64,0,0,1-.48,0,1.41,1.41,0,0,1-.78-.17.8.8,0,0,1-.24-.68V43.35a.84.84,0,0,1,.13-.5,1.41,1.41,0,0,1,.37-.36,3.25,3.25,0,0,1,1-.45,5.12,5.12,0,0,1,1.34-.17,3.16,3.16,0,0,1,2,.58A2,2,0,0,1,50,44.09v3.73l-.35.06a3.64,3.64,0,0,1-.48,0,1.41,1.41,0,0,1-.78-.17.83.83,0,0,1-.23-.68V44.14A.75.75,0,0,0,47.9,43.52Z" style="fill:#b1378c"/><path d="M54.1,41.87a2.78,2.78,0,0,1,.52.05,2.47,2.47,0,0,1,.45.11V40l.35-.08a3.64,3.64,0,0,1,.48,0,1.32,1.32,0,0,1,.78.18.84.84,0,0,1,.23.68v5.85a.9.9,0,0,1-.12.48,1.22,1.22,0,0,1-.38.37,4.54,4.54,0,0,1-.87.37,4,4,0,0,1-1.21.17A3.52,3.52,0,0,1,52,47.25,2.88,2.88,0,0,1,51.08,45a3.78,3.78,0,0,1,.23-1.37,2.83,2.83,0,0,1,.64-1,2.75,2.75,0,0,1,1-.57A3.85,3.85,0,0,1,54.1,41.87Zm1,1.63-.35-.13a1.23,1.23,0,0,0-.39,0,1.39,1.39,0,0,0-1,.39A1.81,1.81,0,0,0,52.94,45a1.73,1.73,0,0,0,.36,1.21,1.38,1.38,0,0,0,1,.37,1.55,1.55,0,0,0,.45,0,1.41,1.41,0,0,0,.32-.13Z" style="fill:#b1378c"/><path d="M58.24,40.4a1,1,0,0,1,.28-.7,1,1,0,0,1,.74-.28,1,1,0,0,1,.74.28,1,1,0,0,1,0,1.41,1,1,0,0,1-.74.29,1,1,0,0,1-1-1Zm1.93,7.42-.33.06a3.64,3.64,0,0,1-.48,0,1.41,1.41,0,0,1-.78-.17.83.83,0,0,1-.23-.68V42.13a2.49,2.49,0,0,1,.34-.08,3.43,3.43,0,0,1,.48,0,1.28,1.28,0,0,1,.77.18.81.81,0,0,1,.23.68Z" style="fill:#b1378c"/><path d="M63.91,41.87A4.94,4.94,0,0,1,65,42a2.31,2.31,0,0,1,.87.39,1.82,1.82,0,0,1,.56.67,2.22,2.22,0,0,1,.2,1v2.72a.71.71,0,0,1-.17.49,1.24,1.24,0,0,1-.39.32,2.93,2.93,0,0,1-.91.35A5.67,5.67,0,0,1,64,48a3.55,3.55,0,0,1-2-.48,1.82,1.82,0,0,1-.24-2.7,2.66,2.66,0,0,1,1.51-.54l1.6-.17V44a.6.6,0,0,0-.31-.56,1.83,1.83,0,0,0-.9-.19,3.82,3.82,0,0,0-.9.11,5.93,5.93,0,0,0-.78.26.84.84,0,0,1-.25-.3.87.87,0,0,1-.1-.42.77.77,0,0,1,.55-.76,4,4,0,0,1,.81-.2A7.11,7.11,0,0,1,63.91,41.87ZM64,46.66a2.29,2.29,0,0,0,.52,0,1.24,1.24,0,0,0,.39-.14v-1.1l-1,.08a1.58,1.58,0,0,0-.62.17.47.47,0,0,0-.24.42.58.58,0,0,0,.22.46A1.18,1.18,0,0,0,64,46.66Z" style="fill:#b1378c"/></svg>